<?xml version="1.0" encoding="utf-8"?>
<!-- Generator: Adobe Illustrator 24.1.0, SVG Export Plug-In . SVG Version: 6.00 Build 0)  -->
<svg version="1.1" xmlns="http://www.w3.org/2000/svg" xmlns:xlink="http://www.w3.org/1999/xlink" x="0px" y="0px"
	 viewBox="0 0 219 69.5" style="enable-background:new 0 0 219 69.5;" xml:space="preserve">
<style type="text/css">
	.st0{enable-background:new    ;}
	.st1{fill:#212121;}
	.st2{fill:#FFFFFF;}
</style>
<g id="Shape_2_1_" class="st0">
	<g id="Shape_2">
		<g>
			<rect x="34" y="63" width="23.5" height="0.5"/>
		</g>
	</g>
</g>
<g id="Shape_2_copy_5_1_" class="st0">
	<g id="Shape_2_copy_5">
		<g>
			<rect x="162.5" y="63" width="23.5" height="0.5"/>
		</g>
	</g>
</g>
<g id="Rectangle_2_1_" class="st0">
	<g id="Rectangle_2">
		<g>
			<polygon class="st1" points="209,0 10,0 0,46 219,46 			"/>
		</g>
	</g>
</g>
<g id="Mariusz">
	<g>
		<path class="st2" d="M67.66,34.07V17.26l-6.77,16.81h-2.23l-6.77-16.81v16.81h-5.11V10.06h7.16l5.83,14.51l5.83-14.51h7.2v24.01
			H67.66z"/>
		<path class="st2" d="M87.89,34.07v-1.8c-1.19,1.4-3.24,2.23-5.51,2.23c-2.77,0-6.05-1.87-6.05-5.76c0-4.07,3.28-5.62,6.05-5.62
			c2.3,0,4.36,0.76,5.51,2.12v-2.34c0-1.76-1.51-2.92-3.82-2.92c-1.87,0-3.6,0.68-5.08,2.05l-1.73-3.06
			c2.12-1.87,4.86-2.74,7.6-2.74c3.96,0,7.59,1.58,7.59,6.59v11.23H87.89z M87.89,29.9v-2.16c-0.76-1.01-2.2-1.51-3.67-1.51
			c-1.8,0-3.28,0.94-3.28,2.63c0,1.62,1.48,2.56,3.28,2.56C85.69,31.41,87.13,30.9,87.89,29.9z"/>
		<path class="st2" d="M97,34.07V16.68h4.57v2.38c1.22-1.55,3.38-2.81,5.54-2.81v4.46c-0.32-0.07-0.76-0.11-1.26-0.11
			c-1.51,0-3.53,0.86-4.28,1.98v11.48H97z"/>
		<path class="st2" d="M109.49,12.08c0-1.51,1.26-2.7,2.74-2.7c1.51,0,2.74,1.19,2.74,2.7s-1.22,2.74-2.74,2.74
			C110.75,14.81,109.49,13.59,109.49,12.08z M109.96,34.07V16.68h4.57v17.39H109.96z"/>
		<path class="st2" d="M130.8,34.07v-2.2c-1.19,1.33-3.28,2.63-6.12,2.63c-3.82,0-5.62-2.09-5.62-5.47V16.68h4.57v10.55
			c0,2.41,1.26,3.2,3.2,3.2c1.76,0,3.17-0.97,3.96-1.98V16.68h4.57v17.39H130.8z"/>
		<path class="st2" d="M138.4,31.8l1.98-3.2c1.26,1.19,3.85,2.38,6.01,2.38c1.98,0,2.92-0.79,2.92-1.87
			c0-2.88-10.33-0.54-10.33-7.38c0-2.92,2.56-5.47,7.13-5.47c2.95,0,5.29,1.01,7.02,2.38l-1.84,3.13c-1.04-1.12-3.02-2.02-5.15-2.02
			c-1.66,0-2.74,0.76-2.74,1.73c0,2.59,10.29,0.43,10.29,7.45c0,3.17-2.7,5.58-7.52,5.58C143.15,34.5,140.23,33.49,138.4,31.8z"/>
		<path class="st2" d="M156.33,34.07v-3.42l7.85-9.97h-7.85v-4h14.04V20l-7.96,10.08h8.1v4H156.33z"/>
	</g>
</g>
<g id="Dabrowski">
	<g>
		<path class="st1" d="M64.9,69.07V55.73h4.26c4.14,0,6.74,3.02,6.74,6.68c0,3.7-2.6,6.66-6.74,6.66H64.9z M74.7,62.41
			c0-3.12-2-5.64-5.54-5.64h-3.12v11.26h3.12C72.68,68.03,74.7,65.53,74.7,62.41z"/>
		<path class="st1" d="M86.02,69.07v-1.54c-0.68,1-1.92,1.78-3.36,1.78c-2.56,0-4.3-1.96-4.3-5.06c0-3.06,1.74-5.08,4.3-5.08
			c1.38,0,2.58,0.7,3.36,1.8v-1.56h1.06v9.66H86.02z M86.02,66.65v-4.78c-0.56-0.92-1.82-1.76-3.18-1.76c-2.14,0-3.38,1.8-3.38,4.14
			c0,2.34,1.24,4.12,3.38,4.12C84.2,68.37,85.46,67.57,86.02,66.65z"/>
		<path class="st1" d="M90.52,69.07V55.73h1.04v5.24c0.78-1.1,2-1.8,3.36-1.8c2.58,0,4.32,2.02,4.32,5.08c0,3.1-1.76,5.06-4.32,5.06
			c-1.44,0-2.68-0.78-3.36-1.78v1.54H90.52z M94.74,68.37c2.16,0,3.38-1.78,3.38-4.12c0-2.34-1.22-4.14-3.38-4.14
			c-1.34,0-2.62,0.84-3.18,1.76v4.78C92.12,67.57,93.4,68.37,94.74,68.37z"/>
		<path class="st1" d="M102.14,69.07v-9.66h1.04v1.66c0.82-1.08,1.92-1.86,3.26-1.86v1.14c-0.18-0.04-0.32-0.04-0.52-0.04
			c-0.98,0-2.3,0.88-2.74,1.72v7.04H102.14z"/>
		<path class="st1" d="M108.14,64.23c0-2.82,1.8-5.06,4.62-5.06c2.86,0,4.66,2.24,4.66,5.06c0,2.82-1.8,5.08-4.66,5.08
			C109.94,69.31,108.14,67.05,108.14,64.23z M116.3,64.23c0-2.14-1.26-4.12-3.54-4.12c-2.24,0-3.52,1.98-3.52,4.12
			c0,2.16,1.28,4.14,3.52,4.14C115.04,68.37,116.3,66.39,116.3,64.23z"/>
		<path class="st1" d="M128.58,69.07l-2.7-8.26l-2.72,8.26h-1l-3.14-9.66h1.12l2.56,8.2l2.72-8.2h0.9l2.72,8.2l2.56-8.2h1.12
			l-3.14,9.66H128.58z"/>
		<path class="st1" d="M134.04,67.77l0.62-0.76c0.62,0.78,1.76,1.42,3.12,1.42c1.62,0,2.58-0.84,2.58-1.96c0-2.64-6.1-1.14-6.1-4.62
			c0-1.48,1.26-2.68,3.44-2.68c1.66,0,2.76,0.64,3.46,1.42l-0.58,0.74c-0.56-0.76-1.6-1.28-2.88-1.28c-1.5,0-2.4,0.76-2.4,1.76
			c0,2.42,6.08,0.94,6.08,4.66c0,1.56-1.2,2.84-3.62,2.84C136.2,69.31,135,68.85,134.04,67.77z"/>
		<path class="st1" d="M150.96,69.07l-3.86-4.6l-1.8,1.7v2.9h-1.04V55.73h1.04v9.2l5.68-5.52h1.4l-4.5,4.36l4.48,5.3H150.96z"/>
		<path class="st1" d="M154.28,57.09c0-0.44,0.38-0.78,0.8-0.78c0.44,0,0.8,0.34,0.8,0.78s-0.36,0.8-0.8,0.8
			C154.66,57.89,154.28,57.53,154.28,57.09z M154.56,69.07v-9.66h1.04v9.66H154.56z"/>
	</g>
</g>
</svg>
